<mxfile host="Electron" agent="Mozilla/5.0 (Windows NT 10.0; Win64; x64) AppleWebKit/537.36 (KHTML, like Gecko) draw.io/26.1.1 Chrome/132.0.6834.210 Electron/34.3.3 Safari/537.36" version="26.1.1">
  <diagram name="Página-1" id="QH1fFq86TXmNnz6QSvFa">
    <mxGraphModel dx="3695" dy="2857" grid="1" gridSize="10" guides="1" tooltips="1" connect="1" arrows="1" fold="1" page="1" pageScale="1" pageWidth="827" pageHeight="1169" math="0" shadow="0">
      <root>
        <mxCell id="0" />
        <mxCell id="1" parent="0" />
        <mxCell id="yn4McFNv_a8kvBLm5iDR-68" value="" style="shape=card;whiteSpace=wrap;html=1;fillColor=light-dark(#202023,#121212);" parent="1" vertex="1">
          <mxGeometry x="-60" y="-340" width="1100" height="1430" as="geometry" />
        </mxCell>
        <mxCell id="yn4McFNv_a8kvBLm5iDR-13" value="" style="shape=card;whiteSpace=wrap;html=1;fillColor=light-dark(#202023,#121212);strokeColor=#FFFFFF;" parent="1" vertex="1">
          <mxGeometry x="100" y="-260" width="900" height="1300" as="geometry" />
        </mxCell>
        <mxCell id="yn4McFNv_a8kvBLm5iDR-1" value="Usuario&lt;div&gt;&lt;br&gt;&lt;/div&gt;" style="shape=umlActor;verticalLabelPosition=bottom;verticalAlign=top;html=1;outlineConnect=0;fillColor=#1ba1e2;strokeColor=#006EAF;fontColor=#ffffff;" parent="1" vertex="1">
          <mxGeometry x="-30" y="180" width="30" height="60" as="geometry" />
        </mxCell>
        <mxCell id="yn4McFNv_a8kvBLm5iDR-2" value="Supervisor" style="shape=umlActor;verticalLabelPosition=bottom;verticalAlign=top;html=1;outlineConnect=0;fillColor=#008a00;fontColor=#ffffff;strokeColor=#005700;" parent="1" vertex="1">
          <mxGeometry x="-30" y="710" width="30" height="60" as="geometry" />
        </mxCell>
        <mxCell id="yn4McFNv_a8kvBLm5iDR-6" value="Gestionar eventos propios" style="ellipse;whiteSpace=wrap;html=1;align=center;newEdgeStyle={&quot;edgeStyle&quot;:&quot;entityRelationEdgeStyle&quot;,&quot;startArrow&quot;:&quot;none&quot;,&quot;endArrow&quot;:&quot;none&quot;,&quot;segment&quot;:10,&quot;curved&quot;:1,&quot;sourcePerimeterSpacing&quot;:0,&quot;targetPerimeterSpacing&quot;:0};treeFolding=1;treeMoving=1;fillColor=#f8cecc;strokeColor=#b85450;" parent="1" vertex="1">
          <mxGeometry x="185" y="290" width="120" height="50" as="geometry" />
        </mxCell>
        <mxCell id="yn4McFNv_a8kvBLm5iDR-7" value="Gestionar Alumnos" style="ellipse;whiteSpace=wrap;html=1;align=center;newEdgeStyle={&quot;edgeStyle&quot;:&quot;entityRelationEdgeStyle&quot;,&quot;startArrow&quot;:&quot;none&quot;,&quot;endArrow&quot;:&quot;none&quot;,&quot;segment&quot;:10,&quot;curved&quot;:1,&quot;sourcePerimeterSpacing&quot;:0,&quot;targetPerimeterSpacing&quot;:0};treeFolding=1;treeMoving=1;fillColor=#d5e8d4;strokeColor=#82b366;" parent="1" vertex="1">
          <mxGeometry x="185" y="-130" width="120" height="50" as="geometry" />
        </mxCell>
        <mxCell id="yn4McFNv_a8kvBLm5iDR-8" value="Gestionar Empresas" style="ellipse;whiteSpace=wrap;html=1;align=center;newEdgeStyle={&quot;edgeStyle&quot;:&quot;entityRelationEdgeStyle&quot;,&quot;startArrow&quot;:&quot;none&quot;,&quot;endArrow&quot;:&quot;none&quot;,&quot;segment&quot;:10,&quot;curved&quot;:1,&quot;sourcePerimeterSpacing&quot;:0,&quot;targetPerimeterSpacing&quot;:0};treeFolding=1;treeMoving=1;fillColor=#dae8fc;strokeColor=#6c8ebf;" parent="1" vertex="1">
          <mxGeometry x="190" y="100" width="120" height="50" as="geometry" />
        </mxCell>
        <mxCell id="yn4McFNv_a8kvBLm5iDR-9" value="Gestionar tareas de coordinacion" style="ellipse;whiteSpace=wrap;html=1;align=center;newEdgeStyle={&quot;edgeStyle&quot;:&quot;entityRelationEdgeStyle&quot;,&quot;startArrow&quot;:&quot;none&quot;,&quot;endArrow&quot;:&quot;none&quot;,&quot;segment&quot;:10,&quot;curved&quot;:1,&quot;sourcePerimeterSpacing&quot;:0,&quot;targetPerimeterSpacing&quot;:0};treeFolding=1;treeMoving=1;fillColor=#fff2cc;strokeColor=#d6b656;" parent="1" vertex="1">
          <mxGeometry x="185" y="460" width="120" height="50" as="geometry" />
        </mxCell>
        <mxCell id="yn4McFNv_a8kvBLm5iDR-10" value="Gestionar usuarios" style="ellipse;whiteSpace=wrap;html=1;align=center;newEdgeStyle={&quot;edgeStyle&quot;:&quot;entityRelationEdgeStyle&quot;,&quot;startArrow&quot;:&quot;none&quot;,&quot;endArrow&quot;:&quot;none&quot;,&quot;segment&quot;:10,&quot;curved&quot;:1,&quot;sourcePerimeterSpacing&quot;:0,&quot;targetPerimeterSpacing&quot;:0};treeFolding=1;treeMoving=1;fillColor=#e1d5e7;strokeColor=#9673a6;" parent="1" vertex="1">
          <mxGeometry x="185" y="690" width="120" height="50" as="geometry" />
        </mxCell>
        <mxCell id="yn4McFNv_a8kvBLm5iDR-11" value="Gestionar departamentos" style="ellipse;whiteSpace=wrap;html=1;align=center;newEdgeStyle={&quot;edgeStyle&quot;:&quot;entityRelationEdgeStyle&quot;,&quot;startArrow&quot;:&quot;none&quot;,&quot;endArrow&quot;:&quot;none&quot;,&quot;segment&quot;:10,&quot;curved&quot;:1,&quot;sourcePerimeterSpacing&quot;:0,&quot;targetPerimeterSpacing&quot;:0};treeFolding=1;treeMoving=1;fillColor=#b0e3e6;strokeColor=#0e8088;" parent="1" vertex="1">
          <mxGeometry x="185" y="880" width="120" height="50" as="geometry" />
        </mxCell>
        <mxCell id="yn4McFNv_a8kvBLm5iDR-14" value="SYSTEM" style="text;html=1;align=center;verticalAlign=middle;whiteSpace=wrap;rounded=0;fontSize=23;fillColor=#FFFFFF;strokeColor=#36393d;" parent="1" vertex="1">
          <mxGeometry x="860" y="-250" width="130" height="50" as="geometry" />
        </mxCell>
        <mxCell id="yn4McFNv_a8kvBLm5iDR-15" value="Añadir Alumno" style="ellipse;whiteSpace=wrap;html=1;align=center;newEdgeStyle={&quot;edgeStyle&quot;:&quot;entityRelationEdgeStyle&quot;,&quot;startArrow&quot;:&quot;none&quot;,&quot;endArrow&quot;:&quot;none&quot;,&quot;segment&quot;:10,&quot;curved&quot;:1,&quot;sourcePerimeterSpacing&quot;:0,&quot;targetPerimeterSpacing&quot;:0};treeFolding=1;treeMoving=1;fillColor=#d5e8d4;strokeColor=#82b366;" parent="1" vertex="1">
          <mxGeometry x="420" y="-230" width="120" height="50" as="geometry" />
        </mxCell>
        <mxCell id="yn4McFNv_a8kvBLm5iDR-16" value="Modificar Alumno" style="ellipse;whiteSpace=wrap;html=1;align=center;newEdgeStyle={&quot;edgeStyle&quot;:&quot;entityRelationEdgeStyle&quot;,&quot;startArrow&quot;:&quot;none&quot;,&quot;endArrow&quot;:&quot;none&quot;,&quot;segment&quot;:10,&quot;curved&quot;:1,&quot;sourcePerimeterSpacing&quot;:0,&quot;targetPerimeterSpacing&quot;:0};treeFolding=1;treeMoving=1;fillColor=#d5e8d4;strokeColor=#82b366;" parent="1" vertex="1">
          <mxGeometry x="420" y="-170" width="120" height="50" as="geometry" />
        </mxCell>
        <mxCell id="yn4McFNv_a8kvBLm5iDR-17" value="Eliminar Alumno" style="ellipse;whiteSpace=wrap;html=1;align=center;newEdgeStyle={&quot;edgeStyle&quot;:&quot;entityRelationEdgeStyle&quot;,&quot;startArrow&quot;:&quot;none&quot;,&quot;endArrow&quot;:&quot;none&quot;,&quot;segment&quot;:10,&quot;curved&quot;:1,&quot;sourcePerimeterSpacing&quot;:0,&quot;targetPerimeterSpacing&quot;:0};treeFolding=1;treeMoving=1;fillColor=#d5e8d4;strokeColor=#82b366;" parent="1" vertex="1">
          <mxGeometry x="420" y="-110" width="120" height="50" as="geometry" />
        </mxCell>
        <mxCell id="yn4McFNv_a8kvBLm5iDR-18" value="Archivar lista de alumnos" style="ellipse;whiteSpace=wrap;html=1;align=center;newEdgeStyle={&quot;edgeStyle&quot;:&quot;entityRelationEdgeStyle&quot;,&quot;startArrow&quot;:&quot;none&quot;,&quot;endArrow&quot;:&quot;none&quot;,&quot;segment&quot;:10,&quot;curved&quot;:1,&quot;sourcePerimeterSpacing&quot;:0,&quot;targetPerimeterSpacing&quot;:0};treeFolding=1;treeMoving=1;fillColor=#d5e8d4;strokeColor=#82b366;" parent="1" vertex="1">
          <mxGeometry x="420" y="-50" width="120" height="50" as="geometry" />
        </mxCell>
        <mxCell id="yn4McFNv_a8kvBLm5iDR-19" value="" style="endArrow=none;html=1;rounded=0;strokeColor=#FFFFFF;exitX=0.5;exitY=0.5;exitDx=0;exitDy=0;exitPerimeter=0;" parent="1" source="yn4McFNv_a8kvBLm5iDR-1" target="yn4McFNv_a8kvBLm5iDR-7" edge="1">
          <mxGeometry width="50" height="50" relative="1" as="geometry">
            <mxPoint x="70" y="190" as="sourcePoint" />
            <mxPoint x="120" y="140" as="targetPoint" />
          </mxGeometry>
        </mxCell>
        <mxCell id="yn4McFNv_a8kvBLm5iDR-20" value="" style="endArrow=none;html=1;rounded=0;strokeColor=#FFFFFF;" parent="1" target="yn4McFNv_a8kvBLm5iDR-15" edge="1">
          <mxGeometry width="50" height="50" relative="1" as="geometry">
            <mxPoint x="280" y="-120" as="sourcePoint" />
            <mxPoint x="330" y="-170" as="targetPoint" />
          </mxGeometry>
        </mxCell>
        <mxCell id="yn4McFNv_a8kvBLm5iDR-21" value="" style="endArrow=none;html=1;rounded=0;entryX=0.069;entryY=0.725;entryDx=0;entryDy=0;entryPerimeter=0;strokeColor=#FFFFFF;" parent="1" target="yn4McFNv_a8kvBLm5iDR-16" edge="1">
          <mxGeometry width="50" height="50" relative="1" as="geometry">
            <mxPoint x="300" y="-100" as="sourcePoint" />
            <mxPoint x="350" y="-150" as="targetPoint" />
          </mxGeometry>
        </mxCell>
        <mxCell id="yn4McFNv_a8kvBLm5iDR-22" value="" style="endArrow=none;html=1;rounded=0;strokeColor=#FFFFFF;" parent="1" target="yn4McFNv_a8kvBLm5iDR-17" edge="1">
          <mxGeometry width="50" height="50" relative="1" as="geometry">
            <mxPoint x="290" y="-90" as="sourcePoint" />
            <mxPoint x="340" y="-140" as="targetPoint" />
          </mxGeometry>
        </mxCell>
        <mxCell id="yn4McFNv_a8kvBLm5iDR-23" value="" style="endArrow=none;html=1;rounded=0;exitX=0.706;exitY=0.926;exitDx=0;exitDy=0;exitPerimeter=0;strokeColor=#FFFFFF;" parent="1" source="yn4McFNv_a8kvBLm5iDR-7" target="yn4McFNv_a8kvBLm5iDR-18" edge="1">
          <mxGeometry width="50" height="50" relative="1" as="geometry">
            <mxPoint x="270" y="-80" as="sourcePoint" />
            <mxPoint x="320" y="-130" as="targetPoint" />
          </mxGeometry>
        </mxCell>
        <mxCell id="yn4McFNv_a8kvBLm5iDR-25" value="&lt;font style=&quot;font-size: 27px;&quot;&gt;Validar Datos&lt;/font&gt;" style="ellipse;whiteSpace=wrap;html=1;align=center;newEdgeStyle={&quot;edgeStyle&quot;:&quot;entityRelationEdgeStyle&quot;,&quot;startArrow&quot;:&quot;none&quot;,&quot;endArrow&quot;:&quot;none&quot;,&quot;segment&quot;:10,&quot;curved&quot;:1,&quot;sourcePerimeterSpacing&quot;:0,&quot;targetPerimeterSpacing&quot;:0};treeFolding=1;treeMoving=1;" parent="1" vertex="1">
          <mxGeometry x="670" y="290" width="280" height="140" as="geometry" />
        </mxCell>
        <mxCell id="yn4McFNv_a8kvBLm5iDR-27" value="Añadir Empresa" style="ellipse;whiteSpace=wrap;html=1;align=center;newEdgeStyle={&quot;edgeStyle&quot;:&quot;entityRelationEdgeStyle&quot;,&quot;startArrow&quot;:&quot;none&quot;,&quot;endArrow&quot;:&quot;none&quot;,&quot;segment&quot;:10,&quot;curved&quot;:1,&quot;sourcePerimeterSpacing&quot;:0,&quot;targetPerimeterSpacing&quot;:0};treeFolding=1;treeMoving=1;fillColor=#dae8fc;strokeColor=#6c8ebf;" parent="1" vertex="1">
          <mxGeometry x="420" y="40" width="120" height="50" as="geometry" />
        </mxCell>
        <mxCell id="yn4McFNv_a8kvBLm5iDR-28" value="Modificar Empresa" style="ellipse;whiteSpace=wrap;html=1;align=center;newEdgeStyle={&quot;edgeStyle&quot;:&quot;entityRelationEdgeStyle&quot;,&quot;startArrow&quot;:&quot;none&quot;,&quot;endArrow&quot;:&quot;none&quot;,&quot;segment&quot;:10,&quot;curved&quot;:1,&quot;sourcePerimeterSpacing&quot;:0,&quot;targetPerimeterSpacing&quot;:0};treeFolding=1;treeMoving=1;fillColor=#dae8fc;strokeColor=#6c8ebf;" parent="1" vertex="1">
          <mxGeometry x="420" y="100" width="120" height="50" as="geometry" />
        </mxCell>
        <mxCell id="yn4McFNv_a8kvBLm5iDR-29" value="Eliminar Empresa" style="ellipse;whiteSpace=wrap;html=1;align=center;newEdgeStyle={&quot;edgeStyle&quot;:&quot;entityRelationEdgeStyle&quot;,&quot;startArrow&quot;:&quot;none&quot;,&quot;endArrow&quot;:&quot;none&quot;,&quot;segment&quot;:10,&quot;curved&quot;:1,&quot;sourcePerimeterSpacing&quot;:0,&quot;targetPerimeterSpacing&quot;:0};treeFolding=1;treeMoving=1;fillColor=#dae8fc;strokeColor=#6c8ebf;" parent="1" vertex="1">
          <mxGeometry x="420" y="160" width="120" height="50" as="geometry" />
        </mxCell>
        <mxCell id="yn4McFNv_a8kvBLm5iDR-31" value="" style="endArrow=none;html=1;rounded=0;strokeColor=#FFFFFF;" parent="1" target="yn4McFNv_a8kvBLm5iDR-27" edge="1">
          <mxGeometry width="50" height="50" relative="1" as="geometry">
            <mxPoint x="290" y="110" as="sourcePoint" />
            <mxPoint x="340" y="60" as="targetPoint" />
          </mxGeometry>
        </mxCell>
        <mxCell id="yn4McFNv_a8kvBLm5iDR-32" value="" style="endArrow=none;html=1;rounded=0;strokeColor=#FFFFFF;" parent="1" target="yn4McFNv_a8kvBLm5iDR-28" edge="1">
          <mxGeometry width="50" height="50" relative="1" as="geometry">
            <mxPoint x="310" y="130" as="sourcePoint" />
            <mxPoint x="360" y="80" as="targetPoint" />
          </mxGeometry>
        </mxCell>
        <mxCell id="yn4McFNv_a8kvBLm5iDR-33" value="" style="endArrow=none;html=1;rounded=0;entryX=0.028;entryY=0.61;entryDx=0;entryDy=0;entryPerimeter=0;exitX=0.658;exitY=0.931;exitDx=0;exitDy=0;exitPerimeter=0;strokeColor=#FFFFFF;" parent="1" source="yn4McFNv_a8kvBLm5iDR-8" target="yn4McFNv_a8kvBLm5iDR-29" edge="1">
          <mxGeometry width="50" height="50" relative="1" as="geometry">
            <mxPoint x="270" y="150" as="sourcePoint" />
            <mxPoint x="320" y="100" as="targetPoint" />
          </mxGeometry>
        </mxCell>
        <mxCell id="yn4McFNv_a8kvBLm5iDR-34" value="" style="endArrow=none;html=1;rounded=0;entryX=0;entryY=1;entryDx=0;entryDy=0;exitX=0.5;exitY=0.5;exitDx=0;exitDy=0;exitPerimeter=0;strokeColor=#FFFFFF;" parent="1" source="yn4McFNv_a8kvBLm5iDR-1" target="yn4McFNv_a8kvBLm5iDR-8" edge="1">
          <mxGeometry width="50" height="50" relative="1" as="geometry">
            <mxPoint x="60" y="220" as="sourcePoint" />
            <mxPoint x="110" y="170" as="targetPoint" />
          </mxGeometry>
        </mxCell>
        <mxCell id="yn4McFNv_a8kvBLm5iDR-35" value="Añadir Evento" style="ellipse;whiteSpace=wrap;html=1;align=center;newEdgeStyle={&quot;edgeStyle&quot;:&quot;entityRelationEdgeStyle&quot;,&quot;startArrow&quot;:&quot;none&quot;,&quot;endArrow&quot;:&quot;none&quot;,&quot;segment&quot;:10,&quot;curved&quot;:1,&quot;sourcePerimeterSpacing&quot;:0,&quot;targetPerimeterSpacing&quot;:0};treeFolding=1;treeMoving=1;fillColor=#f8cecc;strokeColor=#b85450;" parent="1" vertex="1">
          <mxGeometry x="420" y="230" width="120" height="50" as="geometry" />
        </mxCell>
        <mxCell id="yn4McFNv_a8kvBLm5iDR-36" value="Modificar Evento" style="ellipse;whiteSpace=wrap;html=1;align=center;newEdgeStyle={&quot;edgeStyle&quot;:&quot;entityRelationEdgeStyle&quot;,&quot;startArrow&quot;:&quot;none&quot;,&quot;endArrow&quot;:&quot;none&quot;,&quot;segment&quot;:10,&quot;curved&quot;:1,&quot;sourcePerimeterSpacing&quot;:0,&quot;targetPerimeterSpacing&quot;:0};treeFolding=1;treeMoving=1;fillColor=#f8cecc;strokeColor=#b85450;" parent="1" vertex="1">
          <mxGeometry x="420" y="290" width="120" height="50" as="geometry" />
        </mxCell>
        <mxCell id="yn4McFNv_a8kvBLm5iDR-37" value="Eliminar Evento" style="ellipse;whiteSpace=wrap;html=1;align=center;newEdgeStyle={&quot;edgeStyle&quot;:&quot;entityRelationEdgeStyle&quot;,&quot;startArrow&quot;:&quot;none&quot;,&quot;endArrow&quot;:&quot;none&quot;,&quot;segment&quot;:10,&quot;curved&quot;:1,&quot;sourcePerimeterSpacing&quot;:0,&quot;targetPerimeterSpacing&quot;:0};treeFolding=1;treeMoving=1;fillColor=#f8cecc;strokeColor=#b85450;" parent="1" vertex="1">
          <mxGeometry x="420" y="360" width="120" height="50" as="geometry" />
        </mxCell>
        <mxCell id="yn4McFNv_a8kvBLm5iDR-38" value="" style="endArrow=none;html=1;rounded=0;strokeColor=#FFFFFF;exitX=0.5;exitY=0.5;exitDx=0;exitDy=0;exitPerimeter=0;" parent="1" source="yn4McFNv_a8kvBLm5iDR-1" target="yn4McFNv_a8kvBLm5iDR-6" edge="1">
          <mxGeometry width="50" height="50" relative="1" as="geometry">
            <mxPoint x="70" y="230" as="sourcePoint" />
            <mxPoint x="120" y="180" as="targetPoint" />
          </mxGeometry>
        </mxCell>
        <mxCell id="yn4McFNv_a8kvBLm5iDR-39" value="" style="endArrow=none;html=1;rounded=0;strokeColor=#FFFFFF;" parent="1" target="yn4McFNv_a8kvBLm5iDR-35" edge="1">
          <mxGeometry width="50" height="50" relative="1" as="geometry">
            <mxPoint x="300" y="310" as="sourcePoint" />
            <mxPoint x="350" y="260" as="targetPoint" />
          </mxGeometry>
        </mxCell>
        <mxCell id="yn4McFNv_a8kvBLm5iDR-40" value="" style="endArrow=none;html=1;rounded=0;strokeColor=#FFFFFF;" parent="1" target="yn4McFNv_a8kvBLm5iDR-36" edge="1">
          <mxGeometry width="50" height="50" relative="1" as="geometry">
            <mxPoint x="290" y="330" as="sourcePoint" />
            <mxPoint x="340" y="280" as="targetPoint" />
          </mxGeometry>
        </mxCell>
        <mxCell id="yn4McFNv_a8kvBLm5iDR-41" value="" style="endArrow=none;html=1;rounded=0;exitX=0.687;exitY=0.936;exitDx=0;exitDy=0;exitPerimeter=0;strokeColor=#FFFFFF;" parent="1" source="yn4McFNv_a8kvBLm5iDR-6" target="yn4McFNv_a8kvBLm5iDR-37" edge="1">
          <mxGeometry width="50" height="50" relative="1" as="geometry">
            <mxPoint x="270" y="340" as="sourcePoint" />
            <mxPoint x="320" y="290" as="targetPoint" />
          </mxGeometry>
        </mxCell>
        <mxCell id="yn4McFNv_a8kvBLm5iDR-42" value="" style="endArrow=none;html=1;rounded=0;strokeColor=#FFFFFF;exitX=0.5;exitY=0.5;exitDx=0;exitDy=0;exitPerimeter=0;" parent="1" source="yn4McFNv_a8kvBLm5iDR-1" target="yn4McFNv_a8kvBLm5iDR-9" edge="1">
          <mxGeometry width="50" height="50" relative="1" as="geometry">
            <mxPoint x="70" y="230" as="sourcePoint" />
            <mxPoint x="120" y="180" as="targetPoint" />
          </mxGeometry>
        </mxCell>
        <mxCell id="yn4McFNv_a8kvBLm5iDR-43" value="Añadir Tarea" style="ellipse;whiteSpace=wrap;html=1;align=center;newEdgeStyle={&quot;edgeStyle&quot;:&quot;entityRelationEdgeStyle&quot;,&quot;startArrow&quot;:&quot;none&quot;,&quot;endArrow&quot;:&quot;none&quot;,&quot;segment&quot;:10,&quot;curved&quot;:1,&quot;sourcePerimeterSpacing&quot;:0,&quot;targetPerimeterSpacing&quot;:0};treeFolding=1;treeMoving=1;fillColor=#fff2cc;strokeColor=#d6b656;" parent="1" vertex="1">
          <mxGeometry x="420" y="440" width="120" height="50" as="geometry" />
        </mxCell>
        <mxCell id="yn4McFNv_a8kvBLm5iDR-44" value="Modificar Tarea" style="ellipse;whiteSpace=wrap;html=1;align=center;newEdgeStyle={&quot;edgeStyle&quot;:&quot;entityRelationEdgeStyle&quot;,&quot;startArrow&quot;:&quot;none&quot;,&quot;endArrow&quot;:&quot;none&quot;,&quot;segment&quot;:10,&quot;curved&quot;:1,&quot;sourcePerimeterSpacing&quot;:0,&quot;targetPerimeterSpacing&quot;:0};treeFolding=1;treeMoving=1;fillColor=#fff2cc;strokeColor=#d6b656;" parent="1" vertex="1">
          <mxGeometry x="420" y="520" width="120" height="50" as="geometry" />
        </mxCell>
        <mxCell id="yn4McFNv_a8kvBLm5iDR-46" value="" style="endArrow=none;html=1;rounded=0;exitX=0.958;exitY=0.3;exitDx=0;exitDy=0;exitPerimeter=0;strokeColor=#FFFFFF;" parent="1" source="yn4McFNv_a8kvBLm5iDR-9" target="yn4McFNv_a8kvBLm5iDR-43" edge="1">
          <mxGeometry width="50" height="50" relative="1" as="geometry">
            <mxPoint x="300" y="460" as="sourcePoint" />
            <mxPoint x="350" y="410" as="targetPoint" />
          </mxGeometry>
        </mxCell>
        <mxCell id="yn4McFNv_a8kvBLm5iDR-47" value="" style="endArrow=none;html=1;rounded=0;entryX=0;entryY=0.5;entryDx=0;entryDy=0;exitX=1;exitY=1;exitDx=0;exitDy=0;strokeColor=#FFFFFF;" parent="1" source="yn4McFNv_a8kvBLm5iDR-9" target="yn4McFNv_a8kvBLm5iDR-44" edge="1">
          <mxGeometry width="50" height="50" relative="1" as="geometry">
            <mxPoint x="290" y="490" as="sourcePoint" />
            <mxPoint x="340" y="440" as="targetPoint" />
          </mxGeometry>
        </mxCell>
        <mxCell id="yn4McFNv_a8kvBLm5iDR-48" value="" style="endArrow=none;html=1;rounded=0;strokeColor=#FFFFFF;exitX=0.5;exitY=0.5;exitDx=0;exitDy=0;exitPerimeter=0;" parent="1" source="yn4McFNv_a8kvBLm5iDR-2" target="yn4McFNv_a8kvBLm5iDR-10" edge="1">
          <mxGeometry width="50" height="50" relative="1" as="geometry">
            <mxPoint x="60" y="750" as="sourcePoint" />
            <mxPoint x="110" y="700" as="targetPoint" />
          </mxGeometry>
        </mxCell>
        <mxCell id="yn4McFNv_a8kvBLm5iDR-49" value="" style="endArrow=none;html=1;rounded=0;strokeColor=#FFFFFF;exitX=0.5;exitY=0.5;exitDx=0;exitDy=0;exitPerimeter=0;" parent="1" source="yn4McFNv_a8kvBLm5iDR-2" target="yn4McFNv_a8kvBLm5iDR-11" edge="1">
          <mxGeometry width="50" height="50" relative="1" as="geometry">
            <mxPoint x="70" y="760" as="sourcePoint" />
            <mxPoint x="120" y="710" as="targetPoint" />
          </mxGeometry>
        </mxCell>
        <mxCell id="yn4McFNv_a8kvBLm5iDR-50" value="Añadir Usuario" style="ellipse;whiteSpace=wrap;html=1;align=center;newEdgeStyle={&quot;edgeStyle&quot;:&quot;entityRelationEdgeStyle&quot;,&quot;startArrow&quot;:&quot;none&quot;,&quot;endArrow&quot;:&quot;none&quot;,&quot;segment&quot;:10,&quot;curved&quot;:1,&quot;sourcePerimeterSpacing&quot;:0,&quot;targetPerimeterSpacing&quot;:0};treeFolding=1;treeMoving=1;fillColor=#e1d5e7;strokeColor=#9673a6;" parent="1" vertex="1">
          <mxGeometry x="420" y="590" width="120" height="50" as="geometry" />
        </mxCell>
        <mxCell id="yn4McFNv_a8kvBLm5iDR-51" value="Modificar Usuario" style="ellipse;whiteSpace=wrap;html=1;align=center;newEdgeStyle={&quot;edgeStyle&quot;:&quot;entityRelationEdgeStyle&quot;,&quot;startArrow&quot;:&quot;none&quot;,&quot;endArrow&quot;:&quot;none&quot;,&quot;segment&quot;:10,&quot;curved&quot;:1,&quot;sourcePerimeterSpacing&quot;:0,&quot;targetPerimeterSpacing&quot;:0};treeFolding=1;treeMoving=1;fillColor=#e1d5e7;strokeColor=#9673a6;" parent="1" vertex="1">
          <mxGeometry x="420" y="660" width="120" height="50" as="geometry" />
        </mxCell>
        <mxCell id="yn4McFNv_a8kvBLm5iDR-52" value="Eliminar Usuario" style="ellipse;whiteSpace=wrap;html=1;align=center;newEdgeStyle={&quot;edgeStyle&quot;:&quot;entityRelationEdgeStyle&quot;,&quot;startArrow&quot;:&quot;none&quot;,&quot;endArrow&quot;:&quot;none&quot;,&quot;segment&quot;:10,&quot;curved&quot;:1,&quot;sourcePerimeterSpacing&quot;:0,&quot;targetPerimeterSpacing&quot;:0};treeFolding=1;treeMoving=1;fillColor=#e1d5e7;strokeColor=#9673a6;" parent="1" vertex="1">
          <mxGeometry x="420" y="740" width="120" height="50" as="geometry" />
        </mxCell>
        <mxCell id="yn4McFNv_a8kvBLm5iDR-53" value="" style="endArrow=none;html=1;rounded=0;exitX=0.776;exitY=0.095;exitDx=0;exitDy=0;exitPerimeter=0;strokeColor=#FFFFFF;" parent="1" source="yn4McFNv_a8kvBLm5iDR-10" target="yn4McFNv_a8kvBLm5iDR-50" edge="1">
          <mxGeometry width="50" height="50" relative="1" as="geometry">
            <mxPoint x="280" y="680" as="sourcePoint" />
            <mxPoint x="330" y="630" as="targetPoint" />
          </mxGeometry>
        </mxCell>
        <mxCell id="yn4McFNv_a8kvBLm5iDR-54" value="" style="endArrow=none;html=1;rounded=0;exitX=1;exitY=0.5;exitDx=0;exitDy=0;strokeColor=#FFFFFF;" parent="1" source="yn4McFNv_a8kvBLm5iDR-10" target="yn4McFNv_a8kvBLm5iDR-51" edge="1">
          <mxGeometry width="50" height="50" relative="1" as="geometry">
            <mxPoint x="300" y="700" as="sourcePoint" />
            <mxPoint x="350" y="650" as="targetPoint" />
          </mxGeometry>
        </mxCell>
        <mxCell id="yn4McFNv_a8kvBLm5iDR-55" value="" style="endArrow=none;html=1;rounded=0;exitX=1;exitY=1;exitDx=0;exitDy=0;strokeColor=#FFFFFF;" parent="1" source="yn4McFNv_a8kvBLm5iDR-10" target="yn4McFNv_a8kvBLm5iDR-52" edge="1">
          <mxGeometry width="50" height="50" relative="1" as="geometry">
            <mxPoint x="280" y="710" as="sourcePoint" />
            <mxPoint x="330" y="660" as="targetPoint" />
          </mxGeometry>
        </mxCell>
        <mxCell id="yn4McFNv_a8kvBLm5iDR-57" value="Añadir Departamento" style="ellipse;whiteSpace=wrap;html=1;align=center;newEdgeStyle={&quot;edgeStyle&quot;:&quot;entityRelationEdgeStyle&quot;,&quot;startArrow&quot;:&quot;none&quot;,&quot;endArrow&quot;:&quot;none&quot;,&quot;segment&quot;:10,&quot;curved&quot;:1,&quot;sourcePerimeterSpacing&quot;:0,&quot;targetPerimeterSpacing&quot;:0};treeFolding=1;treeMoving=1;fillColor=#b0e3e6;strokeColor=#0e8088;" parent="1" vertex="1">
          <mxGeometry x="420" y="820" width="120" height="50" as="geometry" />
        </mxCell>
        <mxCell id="yn4McFNv_a8kvBLm5iDR-58" value="Modificar Departamento" style="ellipse;whiteSpace=wrap;html=1;align=center;newEdgeStyle={&quot;edgeStyle&quot;:&quot;entityRelationEdgeStyle&quot;,&quot;startArrow&quot;:&quot;none&quot;,&quot;endArrow&quot;:&quot;none&quot;,&quot;segment&quot;:10,&quot;curved&quot;:1,&quot;sourcePerimeterSpacing&quot;:0,&quot;targetPerimeterSpacing&quot;:0};treeFolding=1;treeMoving=1;fillColor=#b0e3e6;strokeColor=#0e8088;" parent="1" vertex="1">
          <mxGeometry x="420" y="890" width="120" height="50" as="geometry" />
        </mxCell>
        <mxCell id="yn4McFNv_a8kvBLm5iDR-59" value="Eliminar Departamento" style="ellipse;whiteSpace=wrap;html=1;align=center;newEdgeStyle={&quot;edgeStyle&quot;:&quot;entityRelationEdgeStyle&quot;,&quot;startArrow&quot;:&quot;none&quot;,&quot;endArrow&quot;:&quot;none&quot;,&quot;segment&quot;:10,&quot;curved&quot;:1,&quot;sourcePerimeterSpacing&quot;:0,&quot;targetPerimeterSpacing&quot;:0};treeFolding=1;treeMoving=1;fillColor=#b0e3e6;strokeColor=#0e8088;" parent="1" vertex="1">
          <mxGeometry x="420" y="970" width="120" height="50" as="geometry" />
        </mxCell>
        <mxCell id="yn4McFNv_a8kvBLm5iDR-60" value="" style="endArrow=none;html=1;rounded=0;entryX=0;entryY=0.5;entryDx=0;entryDy=0;strokeColor=#FFFFFF;" parent="1" source="yn4McFNv_a8kvBLm5iDR-11" target="yn4McFNv_a8kvBLm5iDR-57" edge="1">
          <mxGeometry width="50" height="50" relative="1" as="geometry">
            <mxPoint x="290" y="890" as="sourcePoint" />
            <mxPoint x="340" y="840" as="targetPoint" />
          </mxGeometry>
        </mxCell>
        <mxCell id="yn4McFNv_a8kvBLm5iDR-61" value="" style="endArrow=none;html=1;rounded=0;exitX=0.99;exitY=0.567;exitDx=0;exitDy=0;exitPerimeter=0;strokeColor=#FFFFFF;" parent="1" source="yn4McFNv_a8kvBLm5iDR-11" target="yn4McFNv_a8kvBLm5iDR-58" edge="1">
          <mxGeometry width="50" height="50" relative="1" as="geometry">
            <mxPoint x="310" y="910" as="sourcePoint" />
            <mxPoint x="350" y="860" as="targetPoint" />
          </mxGeometry>
        </mxCell>
        <mxCell id="yn4McFNv_a8kvBLm5iDR-62" value="" style="endArrow=none;html=1;rounded=0;entryX=0;entryY=0.5;entryDx=0;entryDy=0;exitX=0.701;exitY=0.941;exitDx=0;exitDy=0;exitPerimeter=0;strokeColor=#FFFFFF;" parent="1" source="yn4McFNv_a8kvBLm5iDR-11" target="yn4McFNv_a8kvBLm5iDR-59" edge="1">
          <mxGeometry width="50" height="50" relative="1" as="geometry">
            <mxPoint x="270" y="930" as="sourcePoint" />
            <mxPoint x="320" y="880" as="targetPoint" />
          </mxGeometry>
        </mxCell>
        <mxCell id="yn4McFNv_a8kvBLm5iDR-70" value="&lt;h1 style=&quot;margin-top: 0px;&quot;&gt;&lt;font style=&quot;color: rgb(255, 255, 255); font-size: 40px;&quot;&gt;Importante ⚠️&lt;/font&gt;&lt;/h1&gt;&lt;p&gt;&lt;font style=&quot;color: rgb(255, 255, 255); font-size: 27px;&quot;&gt;Todos los sub-casos incluyen validar datos (include)&lt;/font&gt;&lt;/p&gt;" style="text;html=1;whiteSpace=wrap;overflow=hidden;rounded=0;" parent="1" vertex="1">
          <mxGeometry x="670" y="40" width="300" height="160" as="geometry" />
        </mxCell>
        <mxCell id="4fNTBbqrDtIY4K_PTKIY-1" value="&lt;h1 style=&quot;margin-top: 0px;&quot;&gt;&lt;span style=&quot;color: rgb(255, 255, 255); font-size: 27px; background-color: transparent;&quot;&gt;Los supervisores pueden realizar los casos de uso de los usuarios&amp;nbsp;&lt;/span&gt;&lt;/h1&gt;" style="text;html=1;whiteSpace=wrap;overflow=hidden;rounded=0;align=center;" vertex="1" parent="1">
          <mxGeometry x="660" y="680" width="290" height="140" as="geometry" />
        </mxCell>
      </root>
    </mxGraphModel>
  </diagram>
</mxfile>
